<svg width="57" height="31" viewBox="0 0 57 31" fill="none" xmlns="http://www.w3.org/2000/svg">
<path d="M12.36 6.8V23.4C12.36 28.0667 10.44 30.4 6.6 30.4H5.84C1.94667 30.4 0 28.0667 0 23.4V6.84C0 2.28 1.93333 0 5.8 0H6.56C8.64 0 10.12 0.586667 11 1.76C11.9067 2.93333 12.36 4.61333 12.36 6.8ZM7.76 23.72V6.6C7.76 5.08 7.24 4.32 6.2 4.32C5.13333 4.32 4.6 5.08 4.6 6.6V23.72C4.6 25.24 5.14667 26 6.24 26C7.25333 26 7.76 25.24 7.76 23.72Z" fill="white"/>
<path d="M22.4116 16.96V30.04H17.8916V0.280001H22.4116V12.2H25.4916V0.280001H30.0116V30.04H25.4916V16.96H22.4116Z" fill="white"/>
<path d="M39.3206 30.04L38.7206 24.44H35.4006L34.8406 30.04H30.8006L34.4406 0.280001H39.8006L43.6806 30.04H39.3206ZM37.0406 9L35.8806 20H38.2406L37.0406 9Z" fill="white"/>
<path d="M51.6216 24V17.08H56.0616V23.96C56.0616 28.2533 54.2616 30.4 50.6616 30.4H49.6616C45.9549 30.4 44.1016 28.3067 44.1016 24.12V5.96C44.1016 4.25333 44.5282 2.84 45.3816 1.72C46.2349 0.573334 47.6082 0 49.5016 0H50.5416C51.7149 0 52.6882 0.173333 53.4616 0.52C54.2616 0.866667 54.8349 1.37333 55.1816 2.04C55.5282 2.70667 55.7549 3.36 55.8616 4C55.9949 4.61333 56.0616 5.34667 56.0616 6.2V11.52H51.6216V6.28C51.6216 4.97333 51.1149 4.32 50.1016 4.32C49.5682 4.32 49.1949 4.48 48.9816 4.8C48.7949 5.09333 48.7016 5.58667 48.7016 6.28V23.96C48.7016 25.32 49.1816 26 50.1416 26C51.1282 26 51.6216 25.3333 51.6216 24Z" fill="white"/>
</svg>
