<svg width="87" height="31" viewBox="0 0 87 31" fill="none" xmlns="http://www.w3.org/2000/svg">
<path d="M9.47996 30.04L8.87996 24.44H5.55996L4.99996 30.04H0.959961L4.59996 0.280001H9.95996L13.84 30.04H9.47996ZM7.19996 9L6.03996 20H8.39996L7.19996 9Z" fill="black"/>
<path d="M19.0162 16.96V30.04H14.4962V0.280001H19.0162V12.2H22.0962V0.280001H26.6162V30.04H22.0962V16.96H19.0162Z" fill="black"/>
<path d="M40.6053 6.8V23.4C40.6053 28.0667 38.6853 30.4 34.8453 30.4H34.0853C30.1919 30.4 28.2453 28.0667 28.2453 23.4V6.84C28.2453 2.28 30.1786 0 34.0453 0H34.8053C36.8853 0 38.3653 0.586667 39.2453 1.76C40.1519 2.93333 40.6053 4.61333 40.6053 6.8ZM36.0053 23.72V6.6C36.0053 5.08 35.4853 4.32 34.4453 4.32C33.3786 4.32 32.8453 5.08 32.8453 6.6V23.72C32.8453 25.24 33.3919 26 34.4853 26C35.4986 26 36.0053 25.24 36.0053 23.72Z" fill="black"/>
<path d="M46.5943 16.96V30.04H42.0743V0.280001H46.5943V12.2H49.6743V0.280001H54.1943V30.04H49.6743V16.96H46.5943Z" fill="black"/>
<path d="M63.3434 24V17.08H67.7834V23.96C67.7834 28.2533 65.9834 30.4 62.3834 30.4H61.3834C57.6767 30.4 55.8234 28.3067 55.8234 24.12V5.96C55.8234 4.25333 56.2501 2.84 57.1034 1.72C57.9567 0.573334 59.3301 0 61.2234 0H62.2634C63.4367 0 64.4101 0.173333 65.1834 0.52C65.9834 0.866667 66.5567 1.37333 66.9034 2.04C67.2501 2.70667 67.4767 3.36 67.5834 4C67.7167 4.61333 67.7834 5.34667 67.7834 6.2V11.52H63.3434V6.28C63.3434 4.97333 62.8367 4.32 61.8234 4.32C61.2901 4.32 60.9167 4.48 60.7034 4.8C60.5167 5.09333 60.4234 5.58667 60.4234 6.28V23.96C60.4234 25.32 60.9034 26 61.8634 26C62.8501 26 63.3434 25.3333 63.3434 24Z" fill="black"/>
<path d="M73.6646 11.8H76.3046C79.398 11.8 80.9446 13.6267 80.9446 17.28V24.84C80.9446 26.6267 80.5713 27.9467 79.8246 28.8C79.078 29.6267 77.9046 30.04 76.3046 30.04H69.1446V0.280001H73.6646V11.8ZM73.6646 25.72H74.8246C75.438 25.72 75.8513 25.5467 76.0647 25.2C76.278 24.8533 76.3847 24.3467 76.3847 23.68V18.28C76.3847 17.56 76.278 17.0267 76.0647 16.68C75.878 16.3067 75.4646 16.12 74.8246 16.12H73.6646V25.72ZM86.7447 0.280001V30.04H82.2246V0.280001H86.7447Z" fill="black"/>
</svg>
