<svg width="112" height="31" viewBox="0 0 112 31" fill="none" xmlns="http://www.w3.org/2000/svg">
<path d="M9.12009 30.04L5.36009 17.12V30.04H0.840088V0.280001H5.36009V12.2L8.92009 0.280001H13.3201L9.12009 14.12L13.7601 30.04H9.12009Z" fill="black"/>
<path d="M26.6757 6.8V23.4C26.6757 28.0667 24.7557 30.4 20.9157 30.4H20.1557C16.2624 30.4 14.3157 28.0667 14.3157 23.4V6.84C14.3157 2.28 16.249 0 20.1157 0H20.8757C22.9557 0 24.4357 0.586667 25.3157 1.76C26.2224 2.93333 26.6757 4.61333 26.6757 6.8ZM22.0757 23.72V6.6C22.0757 5.08 21.5557 4.32 20.5157 4.32C19.449 4.32 18.9157 5.08 18.9157 6.6V23.72C18.9157 25.24 19.4624 26 20.5557 26C21.569 26 22.0757 25.24 22.0757 23.72Z" fill="black"/>
<path d="M32.6648 16.96V30.04H28.1448V0.280001H32.6648V12.2H35.7448V0.280001H40.2648V30.04H35.7448V16.96H32.6648Z" fill="black"/>
<path d="M41.4538 0.280001H53.5338V4.6H49.7338V30.04H45.2538V4.6H41.4538V0.280001Z" fill="black"/>
<path d="M62.2301 30.04L61.6301 24.44H58.3101L57.7501 30.04H53.7101L57.3501 0.280001H62.7101L66.5901 30.04H62.2301ZM59.9501 9L58.7901 20H61.1501L59.9501 9Z" fill="black"/>
<path d="M75.5263 30.04L71.7663 17.12V30.04H67.2463V0.280001H71.7663V12.2L75.3263 0.280001H79.7263L75.5263 14.12L80.1663 30.04H75.5263Z" fill="black"/>
<path d="M80.282 0.280001H92.362V4.6H88.562V30.04H84.082V4.6H80.282V0.280001Z" fill="black"/>
<path d="M97.9382 11.8H100.578C103.672 11.8 105.218 13.6267 105.218 17.28V24.84C105.218 26.6267 104.845 27.9467 104.098 28.8C103.352 29.6267 102.178 30.04 100.578 30.04H93.4182V0.280001H97.9382V11.8ZM97.9382 25.72H99.0982C99.7115 25.72 100.125 25.5467 100.338 25.2C100.552 24.8533 100.658 24.3467 100.658 23.68V18.28C100.658 17.56 100.552 17.0267 100.338 16.68C100.152 16.3067 99.7382 16.12 99.0982 16.12H97.9382V25.72ZM111.018 0.280001V30.04H106.498V0.280001H111.018Z" fill="black"/>
</svg>
