<svg width="116" height="31" viewBox="0 0 116 31" fill="none" xmlns="http://www.w3.org/2000/svg">
<path d="M8.32005 24V17.08H12.76V23.96C12.76 28.2533 10.96 30.4 7.36005 30.4H6.36005C2.65338 30.4 0.800049 28.3067 0.800049 24.12V5.96C0.800049 4.25333 1.22672 2.84 2.08005 1.72C2.93338 0.573334 4.30672 0 6.20005 0H7.24005C8.41338 0 9.38672 0.173333 10.16 0.52C10.96 0.866667 11.5334 1.37333 11.88 2.04C12.2267 2.70667 12.4534 3.36 12.56 4C12.6934 4.61333 12.76 5.34667 12.76 6.2V11.52H8.32005V6.28C8.32005 4.97333 7.81338 4.32 6.80005 4.32C6.26672 4.32 5.89338 4.48 5.68005 4.8C5.49338 5.09333 5.40005 5.58667 5.40005 6.28V23.96C5.40005 25.32 5.88005 26 6.84005 26C7.82672 26 8.32005 25.3333 8.32005 24Z" fill="black"/>
<path d="M13.6413 0.280001H25.7213V4.6H21.9213V30.04H17.4413V4.6H13.6413V0.280001Z" fill="black"/>
<path d="M34.0175 17.68H31.3775V30.04H26.8575V0.280001H34.0175C35.6442 0.280001 36.8175 0.666668 37.5375 1.44C38.2842 2.18667 38.6576 3.44 38.6576 5.2V12.24C38.6576 15.8667 37.1109 17.68 34.0175 17.68ZM31.3775 4.32V13.4H32.5375C33.1776 13.4 33.5909 13.2267 33.7775 12.88C33.9909 12.5067 34.0975 11.96 34.0975 11.24V6.36C34.0975 5.69333 33.9909 5.18667 33.7775 4.84C33.5642 4.49333 33.1509 4.32 32.5375 4.32H31.3775Z" fill="black"/>
<path d="M51.1416 0.280001L46.8216 26.12C46.5816 27.5867 46.2083 28.6133 45.7016 29.2C45.1949 29.76 44.3683 30.04 43.2216 30.04H40.3016V25.44H41.3416C41.5816 25.44 41.7683 25.4 41.9016 25.32C42.0616 25.24 42.1683 25.1333 42.2216 25C42.2749 24.8667 42.3283 24.6933 42.3816 24.48L42.5016 23.56C42.5816 23.08 42.5283 22.28 42.3416 21.16L38.9816 0.280001H43.5816L45.2616 13.44L46.8616 0.280001H51.1416Z" fill="black"/>
<path d="M60.1357 30.04L56.3757 17.12V30.04H51.8557V0.280001H56.3757V12.2L59.9357 0.280001H64.3357L60.1357 14.12L64.7757 30.04H60.1357Z" fill="black"/>
<path d="M64.8913 0.280001H76.9713V4.6H73.1713V30.04H68.6913V4.6H64.8913V0.280001Z" fill="black"/>
<path d="M89.2275 0.280001L84.9075 26.12C84.6675 27.5867 84.2942 28.6133 83.7876 29.2C83.2809 29.76 82.4542 30.04 81.3075 30.04H78.3876V25.44H79.4276C79.6675 25.44 79.8542 25.4 79.9875 25.32C80.1476 25.24 80.2542 25.1333 80.3075 25C80.3609 24.8667 80.4142 24.6933 80.4676 24.48L80.5875 23.56C80.6675 23.08 80.6142 22.28 80.4276 21.16L77.0676 0.280001H81.6675L83.3475 13.44L84.9475 0.280001H89.2275Z" fill="black"/>
<path d="M97.1816 17.68H94.5416V30.04H90.0216V0.280001H97.1816C98.8083 0.280001 99.9816 0.666668 100.702 1.44C101.448 2.18667 101.822 3.44 101.822 5.2V12.24C101.822 15.8667 100.275 17.68 97.1816 17.68ZM94.5416 4.32V13.4H95.7016C96.3416 13.4 96.7549 13.2267 96.9416 12.88C97.1549 12.5067 97.2616 11.96 97.2616 11.24V6.36C97.2616 5.69333 97.1549 5.18667 96.9416 4.84C96.7283 4.49333 96.3149 4.32 95.7016 4.32H94.5416Z" fill="black"/>
<path d="M110.746 30.04L110.146 24.44H106.826L106.266 30.04H102.226L105.866 0.280001H111.226L115.106 30.04H110.746ZM108.466 9L107.306 20H109.666L108.466 9Z" fill="black"/>
</svg>
